<svg xmlns="http://www.w3.org/2000/svg" fill="none" viewBox="0 0 212 28" height="28" width="212">
<path style="fill:black;fill-opacity:1;" fill="black" d="M101.685 3.54983C101.792 3.71543 102.072 3.7822 102.216 3.65934C102.39 3.51243 102.508 3.32012 102.593 3.08774C102.398 3.08774 102.211 3.06904 102.035 3.09308C101.781 3.12513 101.664 3.29341 101.672 3.54983H101.685Z" clip-rule="evenodd" fill-rule="evenodd"></path>
<path style="fill:black;fill-opacity:1;" fill="black" d="M116.915 12.2385C116.907 12.2412 116.899 12.2412 116.891 12.2412C116.8 12.2225 116.712 12.2038 116.624 12.1824C116.346 12.1103 116.069 12.0622 115.785 12.1531C115.735 12.1691 115.684 12.1851 115.633 12.2011C115.625 12.1958 115.62 12.1878 115.612 12.1798C115.804 11.8753 115.935 11.5494 115.964 11.1781C116.133 11.1808 116.258 11.1007 116.362 10.9458C116.213 10.9084 116.074 10.8763 115.908 10.8363C115.887 10.7775 115.863 10.676 115.815 10.5852C115.769 10.4944 115.7 10.4142 115.641 10.3314C115.63 10.3341 115.62 10.3368 115.612 10.3421C115.882 10.7962 115.97 11.2583 115.655 11.723C115.647 11.6856 115.655 11.6482 115.66 11.6108C115.689 11.3785 115.681 11.1541 115.508 10.9698C115.339 10.7909 115.123 10.6894 114.896 10.6119C114.658 10.5318 114.415 10.4677 114.175 10.3955C114.1 10.3715 114.025 10.3448 113.95 10.3208C113.945 10.3341 113.942 10.3475 113.937 10.3608C114.119 10.4356 114.303 10.5131 114.487 10.5905C114.343 10.7107 114.306 10.863 114.367 11.0633C114.666 10.9671 114.733 10.903 114.77 10.6466C114.944 10.7348 115.107 10.8229 115.273 10.9057C115.454 10.9938 115.556 11.1488 115.572 11.3384C115.606 11.8325 115.39 12.2225 115.021 12.535C114.971 12.5777 114.901 12.6071 114.861 12.6579C114.778 12.7647 114.674 12.8235 114.546 12.8529C114.546 12.8529 114.546 12.8529 114.543 12.8529H114.541C114.49 12.8529 114.447 12.8448 114.413 12.8288C114.354 12.8582 114.292 12.8849 114.228 12.8983C113.934 12.9624 113.635 13.0158 113.336 13.0585C112.775 13.1387 112.252 13.0345 111.776 12.7193C111.552 12.5724 111.322 12.4362 111.092 12.2946C111.015 12.2465 110.938 12.2011 110.86 12.1531L110.839 12.1397C110.924 12.113 110.988 12.0809 110.988 12.0809C111.095 12.0249 111.181 11.8673 111.215 11.7364C111.229 11.691 111.261 11.5548 111.261 11.5548C111.175 11.5815 111.071 11.5414 111.071 11.5414C110.796 11.4452 110.641 11.528 110.641 11.528C110.441 11.6162 110.363 11.8379 110.334 11.9554C109.877 11.886 109.089 11.902 108.761 11.91C109.538 11.7043 110.705 11.317 111.397 11.4826C111.336 11.6295 111.392 11.7738 111.424 11.8138C111.557 11.9634 111.83 12.0115 111.83 12.0115C111.816 11.9821 111.835 11.6696 111.699 11.52C111.555 11.3624 111.397 11.48 111.397 11.48C111.397 11.48 111.397 11.48 111.397 11.4826C111.266 11.4319 111.135 11.3838 110.991 11.3277C111.114 11.2449 111.135 11.1247 111.098 10.9885C110.905 11.0152 110.825 11.098 110.772 11.3357C110.371 11.285 109.832 11.4292 109.832 11.4292C109.832 11.4292 108.99 11.6108 108.942 11.4212C109.249 10.1792 111.333 11.0312 111.568 11.1755C111.872 11.3651 112.139 11.6189 112.431 11.8325C112.623 11.9714 112.821 12.105 113.029 12.2091C113.344 12.3694 113.686 12.4068 114.031 12.3106C114.308 12.2332 114.578 12.0596 114.722 11.7631C114.226 12.1771 113.961 12.1985 113.737 12.1718C113.956 12.0035 113.953 11.7684 113.945 11.512C113.844 11.5521 113.75 11.5788 113.673 11.6269C113.574 11.6883 113.462 11.7551 113.408 11.8486C113.363 11.9287 113.39 12.0542 113.384 12.1664C113.392 12.1664 113.371 12.1691 113.352 12.1664C113.333 12.1637 113.312 12.1611 113.293 12.1531C113.05 12.0783 112.831 11.9607 112.647 11.7845C112.457 11.6055 112.252 11.4452 112.062 11.2663C111.894 11.1087 111.704 10.9938 111.52 10.9084C111.747 10.8683 111.998 10.8443 112.238 10.7775C112.479 10.7107 112.708 10.5985 112.938 10.5104C112.941 10.7909 113.301 10.9164 113.59 10.8843C113.531 10.6359 113.494 10.3715 113.152 10.3234C113.219 10.2807 113.261 10.2513 113.309 10.2219C113.229 10.2326 113.162 10.262 113.098 10.2994C112.799 10.4864 112.473 10.6092 112.134 10.6733C111.656 10.7668 111.173 10.7187 110.689 10.668C110.296 10.6279 109.904 10.5798 109.511 10.5638C109.263 10.5531 109.038 10.6439 108.924 10.8977C108.894 10.9671 108.777 11.4132 108.753 11.4639C107.145 12.2332 106.229 11.512 106.178 11.301C107.11 10.8122 110.339 10.0056 111.165 9.77052C111.09 9.93345 111.127 10.1017 111.247 10.2326C111.362 10.3555 111.52 10.4303 111.696 10.4329C111.891 10.4356 112.086 10.4329 112.321 10.4329C112.201 10.2086 112.089 10.0029 111.979 9.79723C112.067 9.77587 112.169 9.74916 112.273 9.72512C112.182 9.53281 112.014 9.41529 111.87 9.42597C111.75 9.43665 111.699 9.50877 111.691 9.62629C111.613 9.62362 111.547 9.62095 111.445 9.61561C111.747 9.43398 112.022 9.27105 112.236 9.02532C112.174 9.07073 112.11 9.11613 112.035 9.16955C112.041 9.02531 112.054 8.89978 111.931 8.81698C111.779 8.93985 111.752 9.08942 111.848 9.31378C111.501 9.46603 111.157 9.62095 110.791 9.78388C110.857 9.66903 110.927 9.59157 110.951 9.49808C111.031 9.18023 110.796 8.96655 110.676 8.6861C110.566 8.84636 110.473 8.97456 110.39 9.11078C110.224 9.39391 110.272 9.64231 110.521 9.82928C110.524 9.83196 110.521 9.84264 110.521 9.86668C110.224 9.92544 109.923 9.98688 109.591 10.051C109.762 9.85066 109.931 9.68772 109.909 9.43131C109.899 9.31111 109.893 9.19092 109.877 9.07339C109.832 8.76089 109.917 8.5018 110.184 8.32284C110.334 8.22402 110.494 8.13053 110.657 8.05307C111.031 7.87945 111.429 7.75659 111.766 7.50552C111.84 7.44943 111.912 7.39067 111.99 7.3319C112.118 7.51887 112.284 7.50819 112.578 7.28649C112.441 7.20636 112.316 7.13425 112.18 7.05679C112.193 7.01406 112.217 6.94461 112.233 6.87783C112.252 6.81106 112.26 6.73894 112.273 6.67751C112.479 6.65347 112.562 6.46917 112.471 6.27953C112.308 6.32761 112.196 6.45047 112.222 6.58402C112.241 6.6775 112.214 6.74161 112.177 6.81639C112.156 6.85379 112.137 6.89386 112.126 6.93659C112.041 7.27581 111.776 7.42539 111.48 7.56161C111.597 7.25978 111.37 7.11021 111.237 6.89653C111.199 6.982 111.17 7.04878 111.143 7.11288C111.034 7.37464 111.034 7.45477 111.269 7.66578C111.02 7.75392 110.772 7.84207 110.518 7.93288C110.556 7.60435 110.363 7.3773 110.23 7.10753C110.142 7.24108 110.072 7.35861 109.992 7.46812C109.837 7.6818 109.762 8.00766 110.051 8.21867C109.955 8.34688 109.861 8.4831 109.757 8.60597C109.653 8.72616 109.578 8.71281 109.506 8.56323C109.271 8.07444 109.124 7.56695 109.249 7.01405C109.308 6.75497 109.37 6.4932 109.431 6.21542C109.463 6.27418 109.474 6.31158 109.498 6.33294C109.696 6.50923 110.171 6.46917 110.31 6.2448C110.422 6.06318 110.491 5.85217 110.577 5.65184C110.107 5.52096 109.717 5.55835 109.495 6.05783C109.506 5.91894 109.53 5.7934 109.546 5.66787C109.557 5.58239 109.557 5.49692 109.559 5.41145C109.573 5.33399 109.586 5.25386 109.599 5.17373C109.933 5.27523 110.059 5.18976 110.206 4.74103C110.08 4.74637 109.963 4.75439 109.845 4.75973C109.704 4.76507 109.653 4.87992 109.599 4.96539C109.519 4.75973 109.439 4.55406 109.359 4.34839C109.586 4.28162 109.674 4.06526 109.607 3.67797C109.503 3.73406 109.404 3.77947 109.314 3.83823C109.193 3.91569 109.137 4.03321 109.151 4.17478C109.022 4.13471 108.908 4.09999 108.79 4.06527C108.9 3.86761 108.886 3.77947 108.619 3.51237C108.531 3.69399 108.405 3.86494 108.611 4.05993C108.51 4.06527 108.432 4.06793 108.357 4.0706C108.576 4.11868 108.806 4.0893 109.017 4.22018C108.755 4.26559 108.673 4.46058 108.579 4.65289C109.004 4.7437 109.199 4.66357 109.282 4.38845C109.402 4.50865 109.485 4.6422 109.493 4.81849C109.501 5.00546 109.514 5.19243 109.525 5.3794C109.476 5.61979 109.426 5.86018 109.37 6.13262C109.223 5.70793 109.089 5.74265 108.646 5.77471C108.673 6.162 108.809 6.27151 109.324 6.30357C109.263 6.5306 109.201 6.75764 109.143 6.982C109.049 6.77901 108.924 6.63477 108.713 6.61073C108.51 6.58936 108.304 6.60806 108.09 6.60806C108.181 6.84043 108.157 7.10753 108.379 7.25978C108.587 7.40402 108.819 7.45209 109.041 7.40936C109.105 7.72186 109.169 8.02636 109.228 8.31216C109.012 8.05307 108.745 7.80466 108.419 7.63372C108.186 7.51353 107.943 7.4147 107.7 7.32122C107.497 7.24643 107.286 7.19568 107.078 7.13424C107.22 7.04343 107.348 6.95796 107.361 6.80572C107.382 6.61073 107.366 6.4104 107.366 6.17268C107.198 6.27952 107.035 6.36233 106.894 6.47718C106.731 6.61073 106.723 6.79503 106.8 7.00069C106.611 6.90721 106.437 6.82174 106.258 6.73627C106.456 6.51457 106.386 6.23145 106.095 6.00975C106.031 6.17803 105.969 6.34096 105.897 6.52793C105.769 6.38102 105.625 6.2448 105.513 6.08187C105.403 5.92428 105.328 5.74265 105.238 5.57171C105.23 5.57438 105.224 5.57438 105.216 5.57705C105.27 5.73464 105.32 5.8949 105.374 6.05249C105.235 6.06585 105.117 6.1166 105.048 6.25549C105.195 6.35699 105.336 6.35432 105.51 6.23679C105.919 6.77099 106.52 7.01939 107.089 7.26779C106.982 7.36395 106.872 7.46011 106.747 7.57229C106.926 7.62037 107.078 7.71118 107.228 7.59366C107.289 7.54291 107.321 7.45477 107.369 7.37731C107.535 7.44141 107.735 7.51887 107.954 7.60167C107.735 7.67646 107.674 7.71118 107.527 7.92753C107.412 8.09848 107.324 8.28812 107.225 8.46975C107.233 8.4831 107.241 8.49645 107.246 8.50981C107.455 8.49378 107.666 8.48844 107.874 8.46173C108.048 8.44036 108.21 8.37626 108.283 8.19463C108.331 8.07444 108.368 7.9489 108.416 7.81268C108.63 7.98363 108.854 8.16793 109.079 8.34956C109.071 8.36024 109.065 8.37092 109.06 8.37893C108.787 8.3175 108.544 8.34154 108.365 8.58994C108.251 8.7502 108.122 8.89978 107.973 9.08675C108.229 9.1188 108.448 9.15619 108.67 9.16955C108.87 9.18023 109.036 9.08141 109.14 8.90779C109.199 8.81164 109.231 8.69678 109.271 8.59796C109.431 8.7689 109.541 8.98525 109.613 9.22297C109.677 9.43665 109.591 9.73313 109.447 9.85066C109.188 10.0563 108.881 10.1445 108.558 10.2593C108.52 10.1097 108.48 9.97352 108.456 9.83463C108.427 9.67704 108.528 9.55951 108.624 9.43665C108.496 9.47137 108.472 9.4874 108.376 9.63697C108.24 9.85065 108.368 10.059 108.403 10.2727C108.165 10.3368 107.933 10.4009 107.698 10.465C107.706 10.4116 107.724 10.3849 107.743 10.3555C107.826 10.2166 107.901 10.075 107.879 9.90675C107.834 9.57554 107.658 9.30043 107.481 9.00395C107.348 9.21763 107.23 9.42062 107.097 9.61293C106.947 9.82929 106.931 10.0537 107.014 10.294C106.958 10.2246 106.912 10.2513 106.875 10.3101C106.805 10.4142 106.835 10.5371 106.95 10.6092C107.07 10.5505 107.038 10.4383 107.038 10.3394C107.131 10.4196 107.228 10.5024 107.305 10.5692C106.926 10.7294 106.53 10.8977 106.13 11.0686C106.619 10.4677 106.926 9.80525 106.797 9.00128C107.131 9.09209 107.326 8.94251 107.382 8.56323C107.145 8.57125 106.88 8.50447 106.776 8.79561C106.677 8.59795 106.597 8.37626 106.466 8.18929C106.263 7.89548 106.01 7.64708 105.689 7.46278C105.398 7.29718 105.093 7.25444 104.768 7.28649C105.029 7.28649 105.278 7.3319 105.515 7.50284C105.36 7.51353 105.262 7.56428 105.232 7.70317C105.417 7.82336 105.641 7.76995 105.684 7.59633C105.905 7.73789 106.092 7.90884 106.239 8.11984C106.114 8.14923 105.996 8.17861 105.873 8.20799C106.028 8.46174 106.18 8.51515 106.429 8.419C106.637 8.79294 106.771 9.55952 106.512 9.97619C106.509 9.55685 106.213 9.37789 105.892 9.2203C106.042 9.10544 106.098 8.96655 106.026 8.83567C105.956 8.71013 105.863 8.59796 105.777 8.47242C105.598 8.73685 105.582 8.87841 105.692 9.16421C105.494 9.08408 105.31 9.01196 105.125 8.93984C105.04 8.90512 105.011 8.8517 105.056 8.76356C105.067 8.73952 105.064 8.70213 105.056 8.67274C105.027 8.53118 104.914 8.48578 104.792 8.45105C104.749 8.57659 104.784 8.74486 104.866 8.80629C105.04 8.9345 105.214 9.06004 105.358 9.16688C105.294 9.2203 105.214 9.28441 105.115 9.36721C105.28 9.43932 105.411 9.45802 105.531 9.39124C105.577 9.36721 105.59 9.28707 105.625 9.22297C105.871 9.32714 106.156 9.41261 106.343 9.66903C106.271 9.653 106.205 9.62896 106.138 9.62362C105.943 9.60492 105.772 9.64499 105.644 9.82127C105.515 9.99489 105.368 10.1552 105.211 10.3421C105.644 10.4276 106.052 10.5905 106.386 10.1925C106.1 10.8443 105.526 11.1781 104.933 11.5013C104.976 11.3918 105.016 11.3037 105.043 11.2102C105.101 11.0045 105.043 10.8149 104.936 10.6413C104.824 10.4623 104.709 10.2887 104.583 10.0937C104.476 10.2994 104.37 10.4757 104.284 10.6626C104.228 10.7855 104.183 10.9164 104.167 11.0473C104.148 11.1968 104.175 11.3518 104.276 11.4773C104.313 11.5227 104.367 11.5601 104.415 11.6028C104.394 11.6162 104.383 11.6269 104.372 11.6295C104.028 11.6643 103.68 11.6963 103.336 11.7257C103.248 11.7337 103.181 11.691 103.12 11.6242C103.026 11.5227 102.922 11.4319 102.823 11.3357C102.724 11.2396 102.604 11.1541 102.535 11.0392C102.369 10.7641 102.211 10.481 102.083 10.1872C101.894 9.75717 101.736 9.31378 101.471 8.92115C101.41 8.833 101.346 8.74486 101.309 8.64603C101.244 8.47509 101.191 8.2988 101.148 8.12252C101.076 7.81268 101.055 7.50017 101.13 7.18499C101.199 6.89386 101.349 6.65347 101.57 6.46383C101.869 6.21275 102.23 6.05516 102.588 5.90292C102.826 5.80142 103.071 5.71595 103.29 5.57973C103.595 5.39276 103.875 5.16572 104.108 4.8906C104.34 4.61549 104.554 4.32702 104.631 3.95575C104.77 4.27093 105.152 4.42585 105.441 4.23087C105.617 4.11334 105.791 3.98513 105.996 3.83823C105.807 3.75543 105.652 3.69399 105.499 3.6192C105.352 3.54709 105.203 3.49901 105.037 3.53107C104.874 3.56045 104.762 3.67263 104.671 3.79817C104.653 3.62188 104.637 3.45094 104.621 3.27465C104.76 3.37081 104.96 3.36547 105.021 3.2426C105.091 3.10905 105.123 2.95947 105.179 2.79921C104.92 2.84462 104.706 2.89003 104.605 3.13309C104.589 3.04495 104.578 2.97282 104.567 2.9007C104.551 2.9194 104.551 2.93543 104.554 2.94879C104.557 2.98084 104.559 3.01289 104.562 3.04494C104.637 3.61654 104.581 4.16142 104.185 4.61817C104.086 4.73302 103.964 4.8265 103.851 4.93067C103.726 4.58611 103.608 4.26025 103.491 3.93705C103.566 3.96911 103.63 4.01452 103.691 4.01452C103.854 4.01452 103.993 3.95309 104.086 3.80885C104.199 3.63524 104.209 3.43758 104.212 3.22924C103.902 3.30937 103.574 3.33074 103.448 3.73673C103.419 3.46162 103.493 3.25061 103.587 3.05029C103.737 2.72977 104.001 2.49205 104.231 2.23029C104.391 2.04866 104.565 1.88038 104.714 1.69341C104.928 1.42631 105.053 1.11114 105.174 0.793288C105.182 0.77192 105.184 0.747881 105.19 0.726513C105.184 0.723842 105.176 0.723841 105.171 0.72117C105.144 0.771919 105.115 0.822671 105.08 0.886775C105.128 0.339219 104.968 0.275115 104.613 0.122868C104.583 0.224366 104.548 0.325864 104.519 0.427362C104.436 0.691791 104.511 0.873418 104.76 0.993613C104.834 1.02834 104.912 1.05505 105.024 1.09778C104.77 1.39159 104.53 1.67472 104.284 1.9525C104.097 2.16351 103.899 2.36384 103.72 2.57752C103.515 2.82325 103.344 3.09302 103.282 3.41888C103.272 3.41087 103.261 3.40553 103.261 3.39752C103.216 3.10103 103.165 2.80722 103.13 2.51074C103.093 2.20358 103.077 1.89107 103.031 1.5839C102.991 1.31146 102.927 1.04169 102.871 0.761237C103.042 0.828012 103.216 0.795958 103.325 0.675763C103.491 0.494135 103.534 0.253745 103.539 0C103.389 0.040065 103.248 0.0694452 103.114 0.120194C102.815 0.229705 102.722 0.435372 102.815 0.737195C102.858 0.873416 102.89 1.01498 102.908 1.15654C102.933 1.3355 102.935 1.51446 102.946 1.69341C102.791 1.437 102.353 1.41563 102.054 1.52514C102.129 1.64 102.211 1.74683 102.275 1.86436C102.342 1.99257 102.454 2.05667 102.577 2.09941C102.724 2.15283 102.85 2.09139 102.965 1.96853C102.965 2.01126 102.965 2.02996 102.965 2.05133C102.994 2.63895 102.981 3.22924 103.117 3.8035C103.176 4.05458 103.306 4.28963 103.408 4.53269C103.469 4.6796 103.542 4.82383 103.499 4.9921C103.448 5.17373 103.32 5.29125 103.157 5.36604C102.935 5.46754 102.711 5.55836 102.486 5.6465C102.206 5.75601 101.92 5.8575 101.618 5.97236C101.851 5.5263 101.918 5.05888 101.886 4.57275C102.219 4.59946 102.38 4.51666 102.46 4.26292C102.508 4.11334 102.516 3.95308 102.548 3.78214C102.297 3.88631 102.03 3.88631 101.845 4.09999C101.792 3.89966 101.741 3.71804 101.691 3.53374H101.693C101.666 3.39752 101.637 3.25862 101.61 3.1224C101.602 3.29602 101.602 3.46963 101.64 3.63256C101.733 4.01986 101.765 4.4125 101.739 4.81048C101.731 4.9467 101.677 5.08292 101.64 5.2405C101.544 5.07223 101.485 4.91999 101.389 4.8078C101.178 4.56207 100.943 4.3377 100.721 4.10266C100.489 3.85692 100.363 3.56578 100.531 3.23458C100.553 3.19451 100.561 3.15179 100.577 3.10905C100.457 3.23726 100.344 3.37348 100.344 3.5551C100.344 3.6566 100.366 3.7581 100.376 3.8596L100.374 3.85693V3.8596C100.307 3.80618 100.251 3.72605 100.176 3.70468C99.9303 3.64057 99.714 3.73139 99.4896 3.8863C99.6552 3.99849 99.7995 4.10266 99.9517 4.19348C100.061 4.26025 100.24 4.2282 100.331 4.14005C100.408 4.06527 100.422 3.97979 100.384 3.8863C100.376 3.87829 100.368 3.86761 100.358 3.8596C100.368 3.8596 100.371 3.8596 100.374 3.8596C100.379 3.87029 100.382 3.87829 100.384 3.8863C100.654 4.15875 100.908 4.43387 101.183 4.72768C100.841 4.60214 100.654 4.66624 100.553 4.94403C100.694 4.98409 100.833 5.05621 100.969 5.04553C101.068 5.03751 101.162 4.92533 101.263 4.85321C101.493 5.12566 101.498 5.4622 101.383 5.80142C101.26 6.15666 101.106 6.50389 100.975 6.85647C100.857 7.17432 100.814 7.50551 100.849 7.84473C100.863 7.97027 100.879 8.09314 100.892 8.20799C100.684 8.0878 100.478 7.94623 100.256 7.84741C100.035 7.74858 99.7968 7.68714 99.5724 7.61236C99.7354 7.57229 99.8662 7.46278 99.8929 7.28649C99.9223 7.09418 99.917 6.8992 99.9277 6.67751C99.7727 6.76031 99.6419 6.81372 99.5324 6.89118C99.4148 6.97398 99.2893 7.06213 99.292 7.23842C99.2946 7.38532 99.2733 7.53223 99.4576 7.61503C99.2172 7.599 99.0008 7.58297 98.7765 7.56962C99.0035 7.35594 99.0569 7.12089 98.9207 6.84578C98.8326 6.66415 98.7524 6.47985 98.6536 6.26617C98.5227 6.46115 98.3972 6.62943 98.293 6.81106C98.2236 6.93125 98.1862 7.07282 98.2369 7.21438C98.277 7.3319 98.3357 7.44141 98.3812 7.54825C98.2556 7.52689 98.106 7.50552 97.9431 7.47881C98.074 7.4334 98.1381 7.35059 98.1408 7.23307C98.1434 7.08884 98.0633 6.97132 97.9458 6.91523C97.8015 6.84311 97.6386 6.81106 97.4463 6.74695C97.4971 6.94728 97.5398 7.11555 97.5825 7.28649C97.497 7.23842 97.4329 7.17164 97.3635 7.10487C97.1471 6.89386 97.0483 6.6321 97.0163 6.33829C96.9896 6.10591 97.0724 5.90025 97.1845 5.70259C97.3128 5.47823 97.4703 5.28324 97.692 5.14168C97.7802 5.08559 97.903 5.05621 97.9324 4.928C97.9858 4.71165 97.8576 4.43119 97.6466 4.32435C97.457 4.72767 97.4597 4.928 97.7668 5.05354C97.1792 5.40344 96.7919 5.86285 96.8961 6.60539C96.7144 6.21008 96.5328 5.8121 96.3512 5.41679C96.6076 5.52096 96.8133 5.45152 96.8961 5.21113C96.9495 5.05621 96.9655 4.88793 97.0056 4.7063C96.6931 4.78376 96.4019 4.83184 96.3191 5.19777C96.3085 5.16572 96.2978 5.14969 96.2924 5.13099C96.1642 4.65021 96.231 4.17477 96.3699 3.71269C96.4741 3.36012 96.6477 3.02892 96.7946 2.6897C96.8079 2.66032 96.8453 2.62827 96.8774 2.62025C97.0243 2.58553 97.1044 2.45198 97.0643 2.3024C96.8854 2.29973 96.7705 2.40658 96.7679 2.57485C96.7679 2.61224 96.7545 2.6523 96.7358 2.68435C96.6637 2.81523 96.5889 2.94611 96.5115 3.085C96.4554 2.84996 96.2203 2.80188 96.0654 2.66032C96.0093 2.8179 96.0146 3.08501 96.0761 3.1865C96.1509 3.31204 96.2737 3.34143 96.3859 3.33341C96.3031 3.65393 96.1989 3.96911 96.1455 4.2923C96.0574 4.83184 96.1776 5.34735 96.4073 5.83614C96.4367 5.89757 96.466 5.95901 96.4928 6.02044C96.5168 6.08187 96.5408 6.14331 96.5622 6.20474C96.2337 5.6465 95.7876 5.19243 95.3335 4.7437C95.6701 4.8265 95.7849 4.59145 95.7716 4.36976C95.7582 4.17477 95.6754 3.98246 95.614 3.76077C95.5392 3.8409 95.4938 3.88898 95.4457 3.93705C95.2401 4.14539 95.1118 4.36709 95.2828 4.65823C95.2561 4.63953 95.2267 4.62617 95.2053 4.6048C95.0477 4.44454 94.8795 4.28963 94.7352 4.11869C94.6204 3.98247 94.5322 3.82488 94.4307 3.6753C94.591 3.57915 94.6418 3.41888 94.5643 3.30403C94.5483 3.27999 94.4868 3.25862 94.4628 3.2693C94.38 3.30937 94.3292 3.53374 94.3747 3.61387C94.4601 3.76344 94.5429 3.91569 94.6257 4.06259C94.3613 4.04122 94.2331 4.11334 94.0301 4.39914C94.412 4.58878 94.6524 4.53536 94.7539 4.22553C94.9649 4.46325 95.176 4.69829 95.3976 4.94669C95.0691 4.83718 94.9489 5.08559 94.7753 5.25653C95.1519 5.45953 95.4537 5.38207 95.4991 5.02148C95.7262 5.27523 95.9372 5.51028 96.1455 5.74533C95.8677 5.77204 95.6514 5.88956 95.4431 6.02578C95.7529 6.40239 96.0627 6.45849 96.4286 6.18872C96.4928 6.30891 96.5569 6.42643 96.621 6.54396C96.6851 6.65614 96.7492 6.77099 96.8213 6.90187C96.6023 6.8164 96.4206 6.96598 96.2043 7.27314C96.3752 7.29184 96.5355 7.34258 96.6851 7.31854C96.7892 7.30252 96.8747 7.18767 96.9522 7.12891C97.0991 7.29184 97.2593 7.47079 97.4303 7.66311C96.8587 7.71653 96.3058 7.76727 95.7502 7.82069C95.7449 7.81001 95.7395 7.79933 95.7342 7.78864C95.9105 7.70584 95.9425 7.55894 95.9158 7.39601C95.9025 7.32122 95.8704 7.25177 95.8357 7.18499C95.7743 7.07014 95.7021 6.95796 95.6354 6.84578C95.622 6.84578 95.6087 6.84578 95.5926 6.84311C95.5152 6.99268 95.4324 7.14226 95.3602 7.29451C95.2774 7.47346 95.3603 7.61769 95.4831 7.75926C95.1439 7.72988 94.778 7.37998 94.6711 7.19835C94.8367 7.18767 94.997 7.12623 95.0397 6.96597C95.0958 6.75496 95.1012 6.5306 95.1279 6.31425C94.8207 6.44246 94.4868 6.51191 94.4575 6.92324C94.2464 6.64011 94.0755 6.3463 93.795 6.14598C93.7309 6.10057 93.6588 6.05249 93.6668 5.94832C93.6695 5.92428 93.6348 5.8949 93.6134 5.87353C93.5092 5.78005 93.3944 5.80141 93.2742 5.83079C93.3169 6.01776 93.4291 6.10057 93.6134 6.08988C93.6401 6.08721 93.6748 6.08988 93.6909 6.10591C93.7924 6.19405 93.8885 6.28754 94.0034 6.39438C93.739 6.37301 93.6321 6.46383 93.6188 6.72024C93.7096 6.69353 93.7977 6.68552 93.8672 6.64278C93.9339 6.60539 93.982 6.53327 94.0408 6.47184C94.1076 6.57868 94.1743 6.70689 94.2625 6.81907C94.4494 7.05946 94.6418 7.29985 94.8421 7.52956C95.029 7.74324 95.2748 7.87144 95.5472 7.93021C95.7796 7.98096 96.0227 7.99965 96.2283 8.02903C96.1028 8.08779 95.9399 8.1519 95.7903 8.23737C95.5739 8.35756 95.3656 8.49913 95.1492 8.61932C94.9596 8.72883 94.7539 8.79027 94.5082 8.76623C94.6631 8.64604 94.6925 8.48578 94.615 8.34956C94.5216 8.18929 94.3773 8.06108 94.2331 7.89548C94.153 8.19196 93.9954 8.44304 94.2331 8.69946C93.8698 8.57659 93.6268 8.32018 93.365 8.06643C93.6802 7.98897 93.6909 7.74056 93.5226 7.39333C93.4451 7.48147 93.3704 7.56428 93.3036 7.64975C93.2021 7.78063 93.2048 7.91685 93.3063 8.04506C93.3997 8.15991 93.4879 8.27744 93.584 8.38962C93.9366 8.80362 94.3773 8.94519 94.9035 8.83301C95.0023 8.81164 95.0985 8.77959 95.1946 8.75021C95.2027 8.76356 95.2107 8.77959 95.216 8.79294C95.1225 8.8517 95.029 8.91313 94.9356 8.9719C94.9088 8.98792 94.8795 9.00128 94.8528 9.01731C94.6578 9.12148 94.4655 9.23365 94.2651 9.32981C94.1717 9.37522 94.0648 9.39391 93.9553 9.42863C94.0087 9.14818 93.9366 8.99059 93.6962 8.83301C93.6268 9.02799 93.4986 9.21229 93.6481 9.43131C93.3063 9.43131 92.9911 9.37522 92.6786 9.25769C92.8495 9.06805 92.8121 8.86772 92.4569 8.54453C92.4115 8.68075 92.3554 8.80363 92.334 8.93451C92.3046 9.12148 92.3954 9.21496 92.5423 9.26571C92.7774 9.34584 93.0231 9.40193 93.2689 9.44733C93.4799 9.4874 93.6989 9.49809 93.9072 9.51946C93.8057 9.63698 93.7897 9.77586 93.8805 9.88805C93.8965 9.90674 93.9606 9.91209 93.9793 9.89606C94.1022 9.78388 94.1182 9.63164 94.0301 9.47672C94.4281 9.41529 94.7513 9.19092 95.0931 8.9719C95.0825 9.1001 95.0718 9.19893 95.0611 9.30577C95.4991 9.22564 95.7048 8.96656 95.4858 8.68343C95.5552 8.62734 95.63 8.57659 95.6968 8.51516C95.9425 8.27209 96.2203 8.11183 96.5809 8.10115C97.3849 8.07444 98.1888 8.00232 98.9848 8.13587C99.3026 8.18929 99.6232 8.28011 99.925 8.39229C100.112 8.46441 100.275 8.60597 100.446 8.72082C100.67 8.87841 100.852 9.08942 100.964 9.33248C101.148 9.72779 101.29 10.1445 101.453 10.5505C101.528 10.7374 101.597 10.9324 101.699 11.106C101.845 11.3598 102.014 11.6002 102.182 11.8405C102.326 12.0462 102.484 12.2412 102.631 12.4442C102.706 12.551 102.799 12.6552 102.834 12.7754C102.868 12.8929 102.847 13.0291 102.828 13.1547C102.762 13.5901 102.599 13.9907 102.332 14.3406C102.145 14.5837 101.955 14.8241 101.763 15.0645C101.739 15.0938 101.704 15.1205 101.669 15.1312C101.554 15.1606 101.437 15.1873 101.319 15.206C100.977 15.2621 100.635 15.3209 100.291 15.3609C99.7354 15.4277 99.1771 15.4704 98.6162 15.3957C98.3571 15.3583 98.0927 15.3289 97.8737 15.1579C97.7134 15.0324 97.5879 14.8775 97.6333 14.6691C97.676 14.4662 97.7481 14.2632 97.8443 14.0815C97.9992 13.7904 98.2556 13.6061 98.5868 13.5553C98.894 13.5099 99.2012 13.4725 99.5083 13.4325C99.6312 13.4164 99.754 13.4084 99.8769 13.3951C99.8582 13.363 99.8422 13.355 99.8262 13.3577C99.4362 13.3844 99.0409 13.3897 98.6563 13.4458C98.2797 13.4992 97.9538 13.6622 97.7855 14.0441C97.7535 14.1189 97.692 14.1777 97.6466 14.2445C97.668 14.0975 97.7081 13.9613 97.7481 13.8251C97.8416 13.4966 97.9378 13.168 98.0259 12.8368C98.1808 12.2652 98.2209 11.6803 98.2022 11.09C98.1888 10.652 98.1274 10.2219 98.0045 9.80258C97.9351 9.55952 97.8122 9.33783 97.6386 9.14284C97.5077 8.99594 97.3582 8.89711 97.1926 8.80629C97.9217 9.29776 98.0553 10.0537 98.1194 10.879C97.9752 10.6252 97.6466 10.505 97.3101 10.5718C97.3902 10.7241 97.473 10.8656 97.5425 11.0152C97.6039 11.1434 97.7214 11.1541 97.8336 11.1675C97.9511 11.1835 98.0606 11.1434 98.1301 10.9858C98.1301 11.0499 98.1328 11.074 98.1301 11.0953C98.1167 11.683 98.058 12.2652 97.8843 12.8315C97.7455 13.2856 97.6226 13.7423 97.4784 14.1937C97.4062 14.4234 97.3822 14.6504 97.3875 14.8882C97.3902 15.0137 97.4249 15.1232 97.5238 15.206C97.5985 15.2701 97.6733 15.3396 97.7508 15.4144C97.6146 15.4865 97.4864 15.5239 97.3395 15.5025C96.9789 15.4491 96.6877 15.2568 96.426 15.019C96.2043 14.8161 96.004 14.5944 95.8784 14.3192C95.809 14.1697 95.7208 14.0174 95.6968 13.8598C95.6354 13.4565 95.7849 13.2321 96.1696 13.0612C96.1696 13.1761 96.1402 13.3096 96.1776 13.4245C96.215 13.542 96.3138 13.6408 96.3859 13.745C96.2871 13.8465 96.1776 13.9533 96.0734 14.0655C95.9532 14.1937 95.9452 14.386 96.052 14.5249C96.1509 14.6531 96.2363 14.6611 96.3699 14.573C96.5034 14.4848 96.5515 14.3646 96.5301 14.2124C96.5114 14.0655 96.4847 13.9186 96.4607 13.7717C96.6664 13.8598 96.8694 13.9453 97.1124 14.0468C97.0777 13.8171 97.0563 13.6141 97.0189 13.4111C96.9922 13.2615 96.9415 13.1146 96.7946 13.0345C96.7225 12.9971 96.6423 12.9704 96.5462 12.9276C96.7171 12.8769 96.8694 12.8315 97.0243 12.7807C97.1872 12.7273 97.3715 12.5697 97.3795 12.4843C97.1578 12.6712 96.8934 12.7514 96.6129 12.8101C96.2577 12.8876 95.8757 12.9116 95.6273 13.2402C95.6434 12.7807 95.7823 12.3614 96.044 11.9821C95.8464 12.2038 95.6834 12.4469 95.6006 12.73C95.5178 13.0078 95.4644 13.2936 95.411 13.5313C95.1759 13.2695 94.9169 12.9784 94.6578 12.6873C94.8608 12.7807 95.0424 12.7353 95.2027 12.6125C95.4564 12.4148 95.5152 12.0996 95.6567 11.8219C95.4244 11.8299 95.1947 11.8405 94.9756 11.8833C94.8261 11.9127 94.6765 11.9714 94.6204 12.1477C94.5857 12.2492 94.5429 12.348 94.4948 12.4736C94.4548 12.3374 94.4174 12.2172 94.388 12.0943C94.2972 11.7097 94.3239 11.3277 94.5082 10.9778C94.6044 10.7935 94.7272 10.6119 94.8715 10.4623C95.0745 10.254 95.3015 10.059 95.5392 9.88805C95.6888 9.78121 95.8784 9.72779 96.0494 9.65033C96.004 9.64766 95.9639 9.653 95.9238 9.66903C95.6647 9.76252 95.4003 9.84531 95.1893 10.0296C95.005 10.1899 94.818 10.3528 94.6578 10.5344C94.5429 10.6653 94.4655 10.8336 94.372 10.9858C94.3987 10.7748 94.3319 10.6279 94.1556 10.5585C93.974 10.4864 93.7817 10.473 93.56 10.489C93.6348 10.6359 93.6909 10.7695 93.7657 10.895C93.9099 11.1327 94.1236 11.1781 94.3506 11.0286C94.3399 11.0553 94.3346 11.082 94.3212 11.106C94.1316 11.5067 94.1343 11.9207 94.2598 12.3293C94.372 12.7006 94.6685 12.9544 94.9195 13.2321C95.0184 13.3417 95.1118 13.4565 95.208 13.5687C95.0664 13.4752 94.9569 13.3417 94.818 13.2642C94.5055 13.0906 94.177 12.949 93.8591 12.7888C93.8217 12.7701 93.7683 12.6792 93.7683 12.6792H93.8271V12.6899C93.8992 12.7834 93.9473 12.7781 94.0595 12.6632C94.1903 12.5297 94.185 12.3106 94.0488 12.129C93.8485 12.2626 93.6802 12.4148 93.771 12.6899C93.7336 12.6899 93.6855 12.7006 93.6588 12.6846C93.5306 12.5991 93.4024 12.5136 93.2849 12.4121C93.0846 12.2439 93.0258 12.0088 92.9857 11.7631C93.3864 11.731 93.3864 11.731 93.5039 11.3277C93.3062 11.2823 93.1166 11.2636 93.0018 11.4906V10.5852C93.1567 10.6413 93.2715 10.6279 93.3623 10.5344C93.5466 10.3448 93.5547 10.1071 93.5466 9.84798C93.365 9.91476 93.1807 9.97887 93.0311 10.0857C92.959 10.1365 92.943 10.27 92.9029 10.3662C92.7507 10.2032 92.537 10.1418 92.3126 10.1071C92.3474 10.1338 92.3848 10.1551 92.4248 10.1712C92.6732 10.27 92.8361 10.4463 92.8816 10.708C92.9083 10.8603 92.9109 11.0206 92.8976 11.1728C92.8655 11.5815 92.8735 11.9821 93.0044 12.3854C92.9777 12.3774 92.9537 12.3721 92.935 12.3641C92.756 12.2839 92.6251 12.1504 92.4916 12.0142C92.2405 11.7604 92.0455 11.472 91.8746 11.1594C91.8025 11.0286 91.6823 10.9271 91.5835 10.8122C91.5781 10.8176 91.5728 10.8229 91.5674 10.8282C91.6102 10.9004 91.6529 10.9698 91.6956 11.0419C91.5648 10.9297 91.4045 10.887 91.2656 10.9751C91.084 11.09 90.9291 11.2476 90.7528 11.3918C90.9344 11.504 91.1214 11.5414 91.3457 11.5521C91.5861 11.5654 91.7891 11.3277 91.7384 11.1114C91.8399 11.277 91.9387 11.4452 92.0482 11.6242C91.7464 11.6135 91.53 11.7631 91.2896 11.8753C91.5006 12.0863 91.7384 12.2198 91.904 12.2225C92.0669 12.2252 92.2031 12.1611 92.3046 12.0275C92.6251 12.4522 93.0365 12.7434 93.5466 12.957C93.3971 13.0024 93.2849 13.0265 93.1807 13.0665C92.8121 13.2135 92.4515 13.3817 92.0776 13.5179C91.7063 13.6542 91.3992 13.6168 91.2282 13.0906C91.1347 12.7968 91.0706 12.4896 90.8676 12.2385C90.7822 12.1344 90.7127 12.0168 90.6272 11.9127C90.4643 11.7097 90.2987 11.5067 90.1278 11.309C89.9862 11.1434 89.842 10.9832 89.679 10.7989C89.898 10.879 90.1411 10.7535 90.1732 10.5585C90.2132 10.3234 90.1571 10.0964 90.0824 9.856C89.8366 10.0937 89.4627 10.2353 89.6069 10.6893C89.5962 10.6893 89.5855 10.6894 89.5749 10.6867C89.3932 10.4196 89.2116 10.1498 89.0246 9.87469C89.225 10.3688 89.5455 10.7828 89.8687 11.2182C89.6096 11.1434 89.476 11.3197 89.2944 11.4346C89.444 11.5414 89.5882 11.6082 89.7431 11.5868C89.8473 11.5735 89.9648 11.5254 89.9755 11.3411C90.1839 11.6322 90.3681 11.8913 90.5524 12.1504C90.5444 12.1611 90.5337 12.1691 90.5231 12.1798C90.4483 12.1397 90.3762 12.0916 90.296 12.0622C89.8339 11.8806 89.3478 11.8325 88.8537 11.8112C88.3676 11.7925 87.8788 11.7845 87.4327 11.5521C87.3526 11.512 87.2778 11.5254 87.2083 11.5761C87.0748 11.6749 87.0241 11.8165 87.0027 11.9981C87.1282 11.9714 87.2538 11.9741 87.3392 11.918C87.422 11.8646 87.4648 11.7471 87.5235 11.6589C87.6624 11.7123 87.8254 11.7738 87.9696 11.8272C87.8708 11.9634 87.7773 12.0916 87.6758 12.2278C88.1085 12.3106 88.2661 12.2252 88.2928 11.942C88.5385 11.9554 88.7869 11.9607 89.0326 11.9821C89.3024 12.0062 89.5749 12.0249 89.8393 12.0809C90.061 12.1264 90.2907 12.1878 90.4696 12.3881C90.1464 12.2946 89.9194 12.4763 89.639 12.6205C89.8046 12.7273 89.9515 12.8261 90.101 12.917C90.2399 12.9998 90.3762 12.9677 90.5097 12.8903C90.6192 12.8262 90.678 12.7353 90.6646 12.6018C90.6753 12.6018 90.686 12.5991 90.6967 12.5991C90.8489 12.957 91.0012 13.3149 91.1508 13.6729C90.6887 13.7423 90.2613 13.6729 89.9034 13.3657C89.7351 13.2215 89.5909 13.0478 89.436 12.8876C89.4066 12.8582 89.3745 12.8208 89.3371 12.8075C89.0994 12.714 88.8911 12.7968 88.6721 12.9437C88.7949 13.0211 88.8964 13.1013 89.0086 13.152C89.2036 13.2402 89.3799 13.1253 89.3906 12.9036C89.4894 13.0478 89.5855 13.1841 89.687 13.331C89.46 13.2722 89.2597 13.3497 89.1502 13.5099C88.9952 13.7316 88.9071 13.9961 88.7896 14.2391C88.8003 14.2525 88.8083 14.2658 88.819 14.2792C89.0433 14.2418 89.2677 14.2124 89.4867 14.1617C89.5802 14.1403 89.6844 14.0842 89.7458 14.0094C89.8607 13.8732 89.9408 13.7076 89.9007 13.5313C90.1144 13.6194 90.3254 13.7076 90.5418 13.7957C90.4696 13.8171 90.3975 13.8304 90.3308 13.8625C90.2239 13.9132 90.1144 13.964 90.0209 14.0361C89.9167 14.1162 89.8927 14.378 89.9622 14.4822C90.0102 14.5543 90.1678 14.5703 90.3094 14.5089C90.3468 14.4929 90.3895 14.4635 90.4055 14.4288C90.4536 14.3299 90.499 14.2258 90.5284 14.1189C90.5578 14.0174 90.5685 13.9079 90.5872 13.7957C90.6299 13.8011 90.6646 13.8117 90.6994 13.8117C91.0573 13.8198 91.4259 13.8785 91.7731 13.8171C92.2459 13.7316 92.7026 13.5447 93.1674 13.4138C93.4131 13.3443 93.6642 13.3016 93.9126 13.2589C93.9767 13.2482 94.0755 13.2642 94.1076 13.3069C94.2785 13.526 94.4307 13.7583 94.5937 13.988C94.1503 13.8545 93.9286 14.191 93.6428 14.4341C93.8218 14.4982 93.9793 14.565 94.1449 14.6104C94.2545 14.6424 94.3747 14.6638 94.4815 14.6451C94.6738 14.613 94.8047 14.4875 94.8474 14.3139C95.1492 14.5596 95.4404 14.8187 95.7556 15.0458C96.0547 15.2594 96.3779 15.4384 96.7198 15.588C97.1498 15.7749 97.5905 15.9085 98.0526 15.9913C98.8326 16.1329 99.6152 16.1676 100.403 16.1355C100.459 16.1329 100.518 16.1355 100.601 16.1355C100.454 16.2637 100.326 16.3679 100.205 16.4828C100.024 16.6537 99.8502 16.83 99.6712 17.0036C99.5938 17.0811 99.511 17.1558 99.4309 17.2333C99.324 17.3375 99.2118 17.4416 99.1103 17.5512C99.0168 17.6527 98.9314 17.7622 98.8406 17.869C98.6483 18.096 98.4399 18.3124 98.269 18.5555C98.0873 18.8145 97.9431 19.0977 97.7882 19.3755C97.6359 19.6479 97.5531 19.9444 97.5585 20.2569C97.5612 20.4679 97.5745 20.6762 97.692 20.8685C97.8763 21.1704 98.1354 21.3814 98.4586 21.5229C98.7845 21.6672 99.1184 21.7046 99.4656 21.6592C99.9704 21.5924 100.446 21.4108 100.913 21.2211C101.439 21.0074 101.952 20.759 102.505 20.6148C102.802 20.5373 103.098 20.4545 103.403 20.4999C103.662 20.5347 103.921 20.5908 104.169 20.6709C104.423 20.7537 104.65 20.8979 104.829 21.1063C105.085 21.4054 105.187 21.766 105.166 22.1506C105.152 22.4231 105.115 22.7035 105.032 22.9626C104.901 23.3793 104.746 23.7906 104.559 24.1833C104.356 24.6053 104.11 25.0059 103.873 25.4092C103.691 25.7164 103.499 26.0182 103.298 26.3147C103.061 26.6726 102.641 27.3003 102.641 27.3003H107.772C107.97 27.287 108.518 27.3083 108.691 27.3003C108.574 26.9958 108.285 26.4402 108.181 26.1304C108.088 25.8526 108.064 25.5615 108.09 25.265C108.133 24.8376 108.173 24.4076 108.202 23.9776C108.256 23.2003 108.13 22.4418 107.906 21.6992C107.815 21.3947 107.7 21.0956 107.585 20.7991C107.492 20.5587 107.398 20.3156 107.276 20.0886C107.086 19.7334 106.846 19.4155 106.536 19.1484C106.215 18.868 105.865 18.665 105.462 18.5261C104.722 18.2697 103.996 18.3444 103.272 18.5795C102.823 18.7237 102.441 19.0015 102.046 19.2472C101.869 19.3568 101.712 19.4983 101.53 19.5971C101.194 19.7788 100.855 19.9551 100.507 20.1073C100.197 20.2435 99.8716 20.2649 99.543 20.1581C99.1557 20.0325 99.0436 19.7868 99.1798 19.4422C99.2653 19.2259 99.3694 19.0095 99.5056 18.8226C99.722 18.5234 99.9704 18.2483 100.208 17.9625C100.278 17.8824 100.35 17.8049 100.424 17.7248C100.521 17.6259 100.622 17.5298 100.713 17.4256C100.884 17.2306 101.041 17.0276 101.22 16.838C101.568 16.4667 101.926 16.1061 102.273 15.7349C102.462 15.5319 102.644 15.3182 102.826 15.1099C102.911 15.011 102.997 14.9095 103.074 14.8027C103.192 14.6451 103.309 14.4822 103.4 14.3086C103.528 14.0628 103.651 13.8091 103.731 13.5447C103.801 13.3123 103.809 13.0612 103.846 12.8021C104.508 12.6632 105.157 12.4121 105.774 12.0676C105.612 12.2252 105.58 12.4175 105.646 12.6098C105.705 12.7754 105.801 12.9303 105.889 13.0826C105.929 13.1574 105.991 13.2215 106.066 13.323C106.17 13.1093 106.263 12.925 106.349 12.7407C106.442 12.5457 106.408 12.3641 106.287 12.1878C106.207 12.0676 106.098 12.0008 105.953 11.9554C106.079 11.9153 106.213 11.8539 106.322 11.8833C106.584 11.9554 106.838 12.0703 107.099 12.1718C106.995 12.3667 106.99 12.5457 107.097 12.722C107.155 12.8208 107.214 12.9196 107.281 13.0131C107.353 13.1146 107.436 13.2081 107.519 13.3123C107.687 13.0131 107.839 12.7327 107.807 12.3988C107.933 12.3828 108.021 12.4202 108.101 12.5003C108.213 12.6098 108.323 12.722 108.451 12.8101C108.667 12.957 108.894 13.0879 109.113 13.2241C108.948 13.3016 108.889 13.3977 108.921 13.55C109.119 13.5393 109.252 13.4485 109.247 13.2695C109.42 13.2856 109.594 13.3016 109.768 13.3176C109.121 13.2402 108.643 12.8849 108.2 12.4228C108.381 12.4148 108.534 12.4015 108.689 12.4015C108.715 12.4015 108.755 12.4415 108.766 12.4682C108.806 12.5858 108.884 12.6686 108.996 12.714C109.153 12.7781 109.314 12.8395 109.474 12.9009C109.487 12.8903 109.493 12.8876 109.506 12.8742C109.471 12.6819 109.434 12.4896 109.396 12.2973C109.976 12.2198 110.502 12.3774 110.999 12.6846C110.702 12.8903 110.684 13.1761 110.946 13.4538C111.071 13.2615 111.279 13.1039 111.167 12.7941C111.504 12.9837 111.808 13.152 112.118 13.3256C111.969 13.4512 111.824 13.5927 111.864 13.7877C111.915 14.0228 112.041 14.2311 112.225 14.402C112.305 14.2525 112.404 14.1189 112.449 13.9693C112.495 13.8198 112.487 13.6595 112.503 13.5019C112.65 13.5633 112.81 13.6355 112.957 13.6969C112.943 13.7717 112.914 13.8438 112.917 13.9159C112.919 13.9533 112.978 13.9854 113.013 14.0228C113.042 13.9907 113.085 13.9613 113.096 13.9239C113.109 13.8732 113.098 13.8144 113.098 13.7423C113.208 13.777 113.307 13.8117 113.411 13.8438C113.288 13.9987 113.331 14.175 113.55 14.37C113.641 14.2311 113.75 14.0976 113.702 13.8999C113.793 13.9133 113.873 13.9346 113.956 13.9373C114.071 13.9426 114.164 13.9854 114.263 14.0415C114.338 14.0842 114.458 14.1029 114.535 14.0735C114.677 14.0228 114.802 13.9293 114.963 13.8358C114.813 13.7583 114.688 13.6969 114.565 13.6328C114.434 13.5634 114.298 13.582 114.193 13.6702C114.132 13.7209 114.121 13.8278 114.084 13.9186C113.654 13.8732 113.253 13.6889 112.874 13.4378C113.061 13.4191 113.237 13.4138 113.408 13.3871C113.584 13.3577 113.758 13.3096 113.932 13.2695C113.889 13.3363 113.83 13.3764 113.785 13.4298C113.718 13.5073 113.718 13.6061 113.774 13.6835C113.798 13.7183 113.886 13.7316 113.932 13.7183C114.009 13.6916 114.076 13.6328 114.073 13.5313C114.071 13.4405 114.073 13.347 114.073 13.2669C114.34 13.1413 114.602 13.0158 114.864 12.8903C115.067 13.2375 115.339 13.2455 115.884 13.0238C115.711 12.8502 115.545 12.6846 115.371 12.511C115.612 12.3561 115.871 12.2359 116.186 12.2145C116.055 12.4495 116.239 12.5777 116.328 12.746C116.442 12.5831 116.557 12.4282 116.477 12.2038C116.613 12.2198 116.728 12.2305 116.84 12.2519C116.881 12.2572 116.934 12.2733 116.953 12.3053C117.019 12.4095 117.118 12.4389 117.228 12.4549C117.249 12.4202 117.254 12.4148 117.276 12.3801C117.121 12.1744 117.129 12.1664 116.915 12.2385Z" clip-rule="evenodd" fill-rule="evenodd"></path>
<path style="fill:black;fill-opacity:1;" fill="black" d="M114.535 12.77L114.541 12.7673C114.538 12.7673 114.538 12.77 114.535 12.77V12.8554H114.538C114.733 12.6925 114.704 12.5002 114.444 12.2197C114.396 12.3319 114.348 12.4334 114.308 12.5403C114.26 12.6765 114.303 12.7833 114.407 12.8287C114.45 12.81 114.493 12.7886 114.535 12.77Z" clip-rule="evenodd" fill-rule="evenodd"></path>
<path style="fill:black;fill-opacity:1;" fill="black" d="M7.35594 21.3652C9.26571 21.7899 10.2219 22.7007 10.2219 24.1057C10.2219 24.5838 10.0991 25.0272 9.85867 25.4358C9.61561 25.8445 9.26838 26.1864 8.81965 26.4642C8.36825 26.7419 7.94089 26.9182 7.53223 26.993C7.12356 27.0705 6.41575 27.1079 5.40611 27.1079H0V26.6351H1.77087V16.715H0V16.2422H4.43386H5.29125C8.3816 16.2422 9.92544 17.1317 9.92544 18.9106C9.92811 20.19 9.07072 21.0073 7.35594 21.3652ZM3.74207 26.6324H4.1267C5.57438 26.6324 6.58936 26.4428 7.17431 26.0635C7.75926 25.6842 8.0504 25.0111 8.0504 24.0442C8.0504 23.1761 7.72187 22.5431 7.0648 22.1478C6.40773 21.7525 5.3607 21.5522 3.92637 21.5522H3.74207V26.6324ZM6.99001 17.2813C6.37034 16.902 5.36604 16.7123 3.97979 16.7123H3.74207V21.0794H3.9424C5.53699 21.0794 6.59737 20.9485 7.12623 20.6894C7.65509 20.4304 7.91952 19.8988 7.91952 19.0975C7.92219 18.2668 7.61235 17.6605 6.99001 17.2813ZM23.5983 25.6228C22.4658 26.7419 21.141 27.3002 19.6212 27.3002C18.1014 27.3002 16.7685 26.7366 15.6254 25.6148C14.4822 24.4903 13.9106 23.1735 13.9106 21.6644C13.9106 20.1659 14.4822 18.8518 15.6254 17.722C16.7685 16.5921 18.096 16.0259 19.6025 16.0259C21.1356 16.0259 22.4685 16.5921 23.5983 17.722C24.7308 18.8518 25.2944 20.1766 25.2944 21.6964C25.2944 23.1949 24.7281 24.5063 23.5983 25.6228ZM22.1747 17.8181C21.579 16.942 20.7216 16.504 19.5998 16.504C18.4807 16.504 17.6233 16.942 17.0276 17.8181C16.432 18.6942 16.1329 19.9576 16.1329 21.6003C16.1329 25.0859 17.2894 26.8301 19.5998 26.8301C21.9129 26.8301 23.0668 25.0886 23.0668 21.6003C23.0668 19.9549 22.7703 18.6942 22.1747 17.8181ZM40.3321 16.7123C39.7472 16.7123 39.416 16.7577 39.3385 16.8512C39.2584 16.942 39.2183 17.3106 39.2183 17.9517V27.188H38.9272L30.3132 17.3988V25.0378C30.3132 25.8098 30.372 26.2665 30.4868 26.4134C30.6017 26.5603 30.9649 26.6324 31.5739 26.6324H32.1936V27.1052H28.0135V26.6324H28.7614C29.1994 26.6324 29.4798 26.579 29.6 26.4695C29.7229 26.3627 29.7817 26.1062 29.7817 25.7029V25.0352V16.8566L29.544 16.7097H28.0108V16.2369H31.9372L38.6868 23.8546V17.941C38.6868 17.3026 38.6414 16.9394 38.5506 16.8485C38.4598 16.7577 38.1099 16.7097 37.5009 16.7097H36.8812V16.2369H40.9865V16.7097H40.3321V16.7123ZM49.7127 27.1052V26.6324L51.4355 26.6378L50.1481 23.6222L46.2484 23.6195L45.4711 25.5934C45.3189 25.9406 45.2441 26.173 45.2441 26.2932C45.2441 26.5202 45.602 26.6351 46.3205 26.6351H46.9963V27.1079H43.0005V26.6351H43.7109C44.0395 26.6351 44.2665 26.5737 44.3947 26.4481C44.5229 26.3226 44.6885 25.9994 44.8969 25.4786L48.6924 16.0793H49.093L53.6017 26.6351H55.1535V27.1079H49.7127V27.1052ZM48.1395 18.8331L46.4541 23.1468L49.9611 23.1441L48.1395 18.8331ZM69.5315 16.7123C68.9466 16.7123 68.6154 16.7577 68.5352 16.8512C68.4551 16.942 68.4177 17.3106 68.4177 17.9517V27.188H68.1266L59.5126 17.3988V25.0378C59.5126 25.8098 59.5687 26.2665 59.6862 26.4134C59.8011 26.5603 60.1643 26.6324 60.7706 26.6324H61.393V27.1052H57.2129V26.6324H57.9607C58.3988 26.6324 58.6792 26.579 58.7994 26.4695C58.9223 26.3627 58.9811 26.1062 58.9811 25.7029V25.0352V16.8566L58.7433 16.7097H57.2102V16.2369H61.1366L67.8862 23.8546V17.941C67.8862 17.3026 67.8408 16.9394 67.75 16.8485C67.6591 16.7577 67.3092 16.7097 66.7003 16.7097H66.0806V16.2369H70.1859V16.7097H69.5315V16.7123ZM73.7277 19.402V16.2396H83.2899L75.5707 26.6324H77.6193C79.4596 26.6324 80.7764 26.4802 81.5617 26.1757C82.347 25.8712 82.7423 25.361 82.7423 24.6452V23.8145H83.2712V27.1052H72.921L80.6215 16.7097L78.5622 16.7123C76.9836 16.7123 75.8698 16.8592 75.2234 17.153C74.5797 17.4469 74.2565 17.9517 74.2565 18.6702V19.402H73.7277ZM92.1415 27.1052V26.6324L93.8643 26.6378L92.5742 23.6222L88.6746 23.6195L87.8973 25.5934C87.7451 25.9406 87.6703 26.173 87.6703 26.2932C87.6703 26.5202 88.0309 26.6351 88.7467 26.6351H89.4225V27.1079H85.4267V26.6351H86.1398C86.4683 26.6351 86.6954 26.5737 86.8236 26.4481C86.9518 26.3226 87.1174 25.9994 87.3257 25.4786L91.1212 16.0793H91.5219L96.0305 26.6351H97.5824V27.1079H92.1415V27.1052ZM90.571 18.8331L88.8856 23.1468L92.39 23.1441L90.571 18.8331Z"></path>
<path style="fill:black;fill-opacity:1;" fill="black" d="M118.44 17.5349C117.794 16.95 116.945 16.6589 115.892 16.6589C115.115 16.6589 114.49 16.8485 114.017 17.2278C113.544 17.6071 113.309 18.1092 113.309 18.7396C113.309 19.3058 113.515 19.7305 113.929 20.011C114.34 20.2941 115.056 20.4998 116.074 20.628L116.971 20.7401C118.251 20.9004 119.175 21.2236 119.744 21.7097C120.313 22.1958 120.596 22.9037 120.596 23.8305C120.596 24.8668 120.23 25.7029 119.501 26.3439C118.771 26.985 117.821 27.3055 116.648 27.3055C115.954 27.3055 115.267 27.1879 114.586 26.9529L114.119 26.7926L113.742 26.6644C113.491 26.5683 113.288 26.5202 113.133 26.5202C113.026 26.5202 112.941 26.5709 112.882 26.6724C112.82 26.7739 112.791 26.9529 112.791 27.2093H112.27V23.1547H112.791C112.791 24.362 113.136 25.2782 113.822 25.9032C114.509 26.5282 115.465 26.8407 116.683 26.8407C117.556 26.8407 118.259 26.6297 118.79 26.2104C119.322 25.7883 119.589 25.2381 119.589 24.5543C119.589 23.9988 119.37 23.5714 118.934 23.2669C118.499 22.9624 117.754 22.7354 116.701 22.5858L115.788 22.4576C114.543 22.2867 113.662 21.9715 113.141 21.5121C112.62 21.0527 112.361 20.3662 112.361 19.4474C112.361 18.4858 112.7 17.7059 113.376 17.1022C114.052 16.4986 114.933 16.1968 116.012 16.1968C116.48 16.1968 116.854 16.2395 117.137 16.3223C117.417 16.4051 117.895 16.6108 118.566 16.9366L118.836 17.0622C118.956 17.1156 119.047 17.1423 119.105 17.1423C119.311 17.1423 119.413 17.0141 119.413 16.7577V16.5333H119.933V19.8828H119.413C119.407 18.8998 119.087 18.1199 118.44 17.5349ZM129.616 27.0945V26.6297L131.309 26.6324L130.043 23.6649L126.21 23.6622L125.446 25.604C125.297 25.9459 125.222 26.173 125.222 26.2905C125.222 26.5149 125.575 26.627 126.28 26.627H126.945V27.0918H123.016V26.627H123.716C124.039 26.627 124.263 26.5656 124.389 26.4427C124.514 26.3199 124.677 26.002 124.88 25.4892L128.611 16.2395H129.007L133.438 26.627H134.963V27.0918H129.616V27.0945ZM128.072 18.9532L126.416 23.1975L129.861 23.1921L128.072 18.9532ZM146.427 19.7519V19.4314C146.427 18.3523 146.216 17.6551 145.789 17.34C145.364 17.0248 144.416 16.8672 142.944 16.8672H142.514V26.6297H144.344V27.0945H138.711V26.6297H140.559V16.8672H140.38C138.812 16.8672 137.8 17.0248 137.34 17.34C136.878 17.6551 136.648 18.3523 136.648 19.4314V19.7519H136.112L136.256 16.3998H146.822L146.967 19.7519H146.427ZM160.348 27.204C159.582 27.204 159.018 27.041 158.652 26.7125C158.286 26.384 158.057 25.8231 157.96 25.0271L157.781 23.5287C157.696 22.8289 157.429 22.3561 156.972 22.1104C156.518 21.862 155.709 21.7391 154.55 21.7391H153.975V26.6297H155.789V27.0945H150.281V26.6297H152.023V16.8672H150.281V16.4024H156.507C157.739 16.4024 158.687 16.6268 159.352 17.0729C160.014 17.5189 160.348 18.1626 160.348 19.004C160.348 20.3342 159.403 21.1675 157.514 21.5067C158.388 21.6803 158.997 21.9688 159.344 22.3775C159.691 22.7835 159.918 23.4779 160.025 24.4555L160.151 25.5827C160.199 25.9807 160.279 26.2638 160.394 26.4347C160.506 26.6083 160.677 26.6911 160.904 26.6911C161.083 26.6911 161.339 26.6377 161.676 26.5309L161.892 26.9476C161.377 27.1185 160.864 27.204 160.348 27.204ZM158.302 19.1028C158.302 18.2615 158.025 17.6792 157.469 17.3533C156.913 17.0275 155.917 16.8672 154.483 16.8672H153.981V21.2743H154.555C155.845 21.2743 156.793 21.1007 157.4 20.7535C158 20.4089 158.302 19.856 158.302 19.1028ZM170.576 27.0945V26.6297L172.269 26.6324L171.003 23.6649L167.17 23.6622L166.406 25.604C166.257 25.9459 166.182 26.173 166.182 26.2905C166.182 26.5149 166.534 26.627 167.239 26.627H167.902V27.0918H163.973V26.627H164.673C164.996 26.627 165.22 26.5656 165.346 26.4427C165.471 26.3199 165.634 26.002 165.837 25.4892L169.569 16.2395H169.964L174.395 26.627H175.92V27.0918H170.576V27.0945ZM169.029 18.9532L167.373 23.1975L170.819 23.1921L169.029 18.9532ZM190.058 16.8645C189.484 16.8645 189.158 16.9099 189.08 17.0007C189.003 17.0916 188.963 17.4521 188.963 18.0825V27.1719H188.677L180.21 17.5376V25.0565C180.21 25.815 180.266 26.2665 180.381 26.4107C180.493 26.5549 180.851 26.627 181.449 26.627H182.058V27.0918H177.95V26.627H178.685C179.115 26.627 179.39 26.5736 179.51 26.4668C179.63 26.3599 179.689 26.1089 179.689 25.7135V25.0565V17.0088L179.457 16.8645H177.95V16.3998H181.81L188.445 23.8973V18.0772C188.445 17.4495 188.399 17.0916 188.311 17.0007C188.22 16.9099 187.876 16.8645 187.28 16.8645H186.671V16.3998H190.707V16.8645H190.058ZM199.89 23.9827V23.518H205.074V23.9827H203.621V25.6254C202.772 26.2157 201.989 26.6351 201.271 26.8808C200.552 27.1265 199.751 27.252 198.867 27.252C197.109 27.252 195.688 26.7633 194.604 25.783C193.522 24.8054 192.98 23.5233 192.98 21.9394C192.98 20.3555 193.544 19.0173 194.665 17.9249C195.79 16.8325 197.171 16.2876 198.808 16.2876C199.623 16.2876 200.381 16.4639 201.086 16.8164L201.463 16.9927C201.786 17.1423 201.981 17.2331 202.045 17.2572C202.109 17.2839 202.192 17.2972 202.288 17.2972C202.443 17.2972 202.539 17.2064 202.574 17.0248L202.681 16.5761H203.183V19.9736H202.681C202.478 18.9586 202.032 18.168 201.346 17.6017C200.656 17.0355 199.78 16.7523 198.717 16.7523C197.569 16.7523 196.693 17.1797 196.089 18.0371C195.485 18.8945 195.184 20.1418 195.184 21.7792C195.184 23.502 195.483 24.768 196.081 25.5747C196.679 26.384 197.619 26.7873 198.896 26.7873C199.722 26.7873 200.376 26.6431 200.862 26.3519C201.348 26.0608 201.589 25.6628 201.589 25.158V23.9801H199.89V23.9827ZM212 26.627V27.0918H206.527V26.627H208.269V16.8645H206.527V16.3998H212V16.8645H210.259V26.627H212Z"></path>
</svg>
